#N canvas 0 22 450 300 10;
#X obj 92 40 inlet;
#X obj 93 192 send;
#X obj 93 109 t a b;
#X obj 131 136 symbol \$1-\$2;
#X obj 92 62 route \$2;
#X obj 93 85 list prepend 0;
#X connect 0 0 4 0;
#X connect 2 0 1 0;
#X connect 2 1 3 0;
#X connect 3 0 1 1;
#X connect 4 0 5 0;
#X connect 5 0 2 0;
