#N canvas 359 103 624 544 10;
#X obj 183 58 v tempo;
#X msg 182 31 1;
#X obj 357 341 qlist;
#X msg 399 235 clear;
#X msg 408 279 bang;
#X msg 361 198 clear \, add 0 delta bang \, add 333 delta bang \, add
1000 delta bang \, add 1000 stop bang;
#X msg 53 43 freq;
#N canvas 607 22 637 482 dur 0;
#X obj 344 54 outlet;
#X obj 84 6 inlet;
#X obj 85 110 list-drip;
#X obj 89 195 * 1000;
#X obj 84 77 list-splat -1;
#X obj 136 136 list;
#X msg -15 191 add \$1;
#X obj 85 31 route dur start stop;
#X msg 328 192 1;
#X msg 406 180 0;
#X obj 161 327 spigot;
#X obj 300 160 t b b;
#X obj 88 359 outlet;
#X msg 13 301 print;
#X obj -16 166 * 1000;
#X obj 87 327 qlist;
#X obj 160 362 print ------;
#X obj 214 162 0;
#X obj 245 163 + 1;
#X obj 178 134 t b b;
#X obj 139 202 f;
#X obj 89 170 t a b;
#X obj 82 218 pack f f;
#X obj 84 53 t a b b;
#X msg 229 140 0;
#X msg 138 241 clear \, add 0 SEQ delta \$1;
#X msg 89 269 add \$1 SEQ delta \$2;
#X msg 463 182 rewind;
#X connect 1 0 7 0;
#X connect 2 0 21 0;
#X connect 2 1 5 0;
#X connect 3 0 22 0;
#X connect 4 0 2 0;
#X connect 4 1 5 1;
#X connect 5 0 14 0;
#X connect 6 0 15 0;
#X connect 7 0 23 0;
#X connect 7 1 11 0;
#X connect 7 2 9 0;
#X connect 7 2 27 0;
#X connect 7 3 0 0;
#X connect 8 0 10 1;
#X connect 9 0 10 1;
#X connect 10 0 15 0;
#X connect 10 0 16 0;
#X connect 11 0 15 0;
#X connect 11 1 8 0;
#X connect 13 0 15 0;
#X connect 14 0 6 0;
#X connect 15 0 12 0;
#X connect 15 1 10 0;
#X connect 17 0 18 0;
#X connect 17 0 20 1;
#X connect 17 0 22 1;
#X connect 18 0 17 1;
#X connect 19 0 20 0;
#X connect 19 1 17 0;
#X connect 20 0 25 0;
#X connect 21 0 3 0;
#X connect 21 1 17 0;
#X connect 22 0 26 0;
#X connect 23 0 4 0;
#X connect 23 1 19 0;
#X connect 23 2 24 0;
#X connect 24 0 17 1;
#X connect 25 0 15 0;
#X connect 26 0 15 0;
#X connect 27 0 15 0;
#X restore 16 91 pd dur;
#X msg 73 76 stop;
#X floatatom 21 185 5 0 0 0 - - -;
#X msg 109 61 start;
#X obj 277 335 qlist;
#X msg 17 15 dur 0.33 1 0.8 0.5 \, start;
#X obj 171 329 r SEQ;
#X obj 171 352 route delta;
#X obj 171 376 t f f;
#X obj 426 86 table \$0-pitch 128;
#X obj 426 106 table \$0-amp 128;
#X obj 172 409 tabread \$0-pitch;
#X obj 174 450 osc~;
#X obj 173 489 *~;
#X obj 224 452 tabread \$0-amp;
#X obj 169 523 dac~;
#N canvas 403 295 450 300 pitchamp 0;
#X obj 75 82 abs/sqparam \$0 pitch;
#X obj 55 14 t a a a;
#X obj 56 134 outlet;
#X obj 95 52 abs/sqparam \$0 amp;
#X obj 12 12 inlet;
#X connect 1 0 2 0;
#X connect 1 1 0 0;
#X connect 1 2 3 0;
#X connect 4 0 1 0;
#X restore 69 180 pd pitchamp;
#X msg 74 134 amp 0.6 0.6 0.2 0.1;
#X connect 1 0 0 0;
#X connect 3 0 2 0;
#X connect 4 0 2 0;
#X connect 5 0 2 0;
#X connect 7 0 9 0;
#X connect 7 1 23 0;
#X connect 8 0 7 0;
#X connect 10 0 7 0;
#X connect 12 0 7 0;
#X connect 13 0 14 0;
#X connect 14 0 15 0;
#X connect 15 0 18 0;
#X connect 15 1 21 0;
#X connect 18 0 19 0;
#X connect 19 0 20 0;
#X connect 20 0 22 0;
#X connect 20 0 22 1;
#X connect 21 0 20 1;
#X connect 24 0 23 0;
