#N canvas 694 186 586 338 10;
#X declare -lib mrpeach;
#X obj 406 -63 r BIRDS;
#X obj 404 -40 print;
#X msg 104 -1 parus sustain 1 \, parus glide 2 \, parus gate 1;
#X text 157 110 Wrapper;
#X obj 395 74 import mrpeach;
#X obj -1 -46 unpackOSC;
#X obj -1 -19 pipelist;
#X obj 0 55 main;
#X obj -1 3 list;
#X obj -1 26 s OSC;
#X obj 0 -71 udpreceive 9998;
#X obj 62 50 print;
#X connect 5 0 6 0;
#X connect 5 1 6 1;
#X connect 6 0 8 0;
#X connect 8 0 9 0;
#X connect 10 0 5 0;
