#N canvas 416 227 586 338 10;
#X obj 12 103 dac~;
#N canvas 460 181 450 300 parus 0;
#X obj 55 264 outlet~;
#X obj 61 100 brd parus 1;
#X obj 71 120 brd parus 2;
#X obj 81 140 brd parus 3;
#X obj 91 160 brd parus 4;
#X obj 101 180 brd parus 5;
#X obj 111 200 brd parus 6;
#X obj 121 220 brd parus 7;
#X obj 131 240 brd parus 8;
#X connect 1 0 0 0;
#X connect 2 0 0 0;
#X connect 3 0 0 0;
#X connect 4 0 0 0;
#X connect 5 0 0 0;
#X connect 6 0 0 0;
#X connect 7 0 0 0;
#X connect 8 0 0 0;
#X restore 4 59 pd parus;
#X obj 406 -63 r BIRDS;
#X obj 404 -40 print;
#X obj -2 -2 inlet;
#X obj 112 -40 inlet;
#X obj -1 29 voicer parus 8;
#N canvas 460 181 450 300 cuculus 0;
#X obj 55 264 outlet~;
#X obj 61 100 brd cuculus 1;
#X obj 71 120 brd cuculus 2;
#X obj 81 140 brd cuculus 3;
#X obj 91 160 brd cuculus 4;
#X obj 101 180 brd cuculus 5;
#X obj 111 200 brd cuculus 6;
#X obj 121 220 brd cuculus 7;
#X obj 131 240 brd cuculus 8;
#X connect 1 0 0 0;
#X connect 2 0 0 0;
#X connect 3 0 0 0;
#X connect 4 0 0 0;
#X connect 5 0 0 0;
#X connect 6 0 0 0;
#X connect 7 0 0 0;
#X connect 8 0 0 0;
#X restore 35 79 pd cuculus;
#X obj 99 29 voicer cuculus 8;
#X text -7 -24 MSG;
#X text 153 -44 SCHED;
#X connect 1 0 0 1;
#X connect 1 0 0 0;
#X connect 4 0 6 0;
#X connect 4 0 8 0;
#X connect 5 0 6 1;
#X connect 5 0 8 1;
#X connect 7 0 0 0;
#X connect 7 0 0 1;
