#N canvas 396 214 660 427 10;
#X obj 111 172 outlet~;
#X obj 203 158 switch~;
#X obj 114 122 t a a;
#X obj 114 35 r BIRDS;
#X obj 112 94 route \$2 0;
#X obj 113 64 route \$1;
#X obj 112 145 \$1;
#N canvas 0 22 469 516 fixSwitch 0;
#X obj 206 283 t b b;
#X obj 193 351 1;
#X obj 231 362 0;
#X obj 207 261 gate2trig;
#X obj 347 133 t b a;
#X obj 282 218 t b a;
#X obj 277 268 * 1000;
#X obj 327 164 0.01;
#X obj 323 220 + 0.01;
#X obj 277 246 1;
#X obj 233 338 delay 1010;
#X msg 219 313 stop;
#X obj 278 295 + 10;
#X text 314 293 magic;
#X obj 206 107 route gate sustain attack release;
#X obj 207 79 inlet;
#X obj 191 381 outlet;
#X connect 0 0 1 0;
#X connect 0 0 11 0;
#X connect 0 1 10 0;
#X connect 1 0 16 0;
#X connect 2 0 16 0;
#X connect 3 0 0 0;
#X connect 4 0 7 0;
#X connect 4 1 8 1;
#X connect 5 0 9 0;
#X connect 5 1 9 1;
#X connect 6 0 12 0;
#X connect 7 0 8 0;
#X connect 8 0 5 0;
#X connect 9 0 6 0;
#X connect 10 0 2 0;
#X connect 11 0 10 0;
#X connect 12 0 10 1;
#X connect 14 0 3 0;
#X connect 14 1 5 0;
#X connect 14 2 7 0;
#X connect 14 3 4 0;
#X connect 15 0 14 0;
#X restore 202 132 pd fixSwitch;
#X connect 2 0 6 0;
#X connect 2 1 7 0;
#X connect 3 0 5 0;
#X connect 4 0 2 0;
#X connect 4 1 2 0;
#X connect 5 0 4 0;
#X connect 6 0 0 0;
#X connect 7 0 1 0;
