#N canvas 159 91 936 469 10;
#X obj 181 77 inlet;
#X obj 181 101 t a a a;
#X obj 180 231 *~;
#N canvas 128 74 641 555 ahsr 0;
#X obj 111 -2 inlet;
#X obj 104 391 outlet~;
#X obj 106 311 vline~;
#X obj 204 93 t b a;
#X obj 246 92 t b a;
#X msg 108 285 0 \, 0.95 120 \, 0 100 285;
#X obj 298 91 t b a;
#N canvas 605 124 450 300 calcSus 0;
#X obj 61 44 inlet;
#X obj 135 258 outlet;
#X obj 56 226 pack 0 0 0 0;
#X obj 60 76 t a a a;
#X obj 53 116 unpack 0 0 0 0;
#X obj 72 159 +;
#X msg 106 92 \$1;
#X text 174 71 Add attack to sustain time;
#X connect 0 0 3 0;
#X connect 2 0 1 0;
#X connect 3 0 4 0;
#X connect 3 1 6 0;
#X connect 4 0 2 0;
#X connect 4 1 5 0;
#X connect 4 2 2 2;
#X connect 4 3 2 3;
#X connect 5 0 2 1;
#X connect 6 0 5 1;
#X restore 175 192 pd calcSus;
#X obj 108 107 gate2trig;
#X msg 175 220 set 0 \, addcomma \, add2 \$3 \, add2 \$1 \, addcomma
\, add2 0 \, add2 \$4 \, add2 \$2;
#X obj 207 59 * 1000;
#X obj 300 63 * 1000;
#X obj 159 67 * 1000;
#X obj 175 161 pack 1 1000 1 1;
#N canvas 391 38 689 486 curve 0;
#X obj 316 -87 inlet;
#X obj 318 11 t a a;
#X obj 318 33 abs;
#X obj 319 62 < 0.001;
#X obj 318 83 t a a;
#X obj 345 105 == 0;
#X obj 397 113 exp;
#X msg 398 163 1 \$1;
#X obj 398 184 -;
#X msg 398 213 1 \$1;
#X obj 398 234 /;
#X obj 399 261 t a a;
#X obj 299 215 pow;
#X obj 299 172 pack f f;
#X obj 397 137 t a a;
#X text 442 136 grow;
#X text 442 261 a;
#X msg 299 193 \$2 \$1;
#X obj 299 237 *;
#X obj 299 258 pack f f;
#X msg 297 280 \$2 \$1;
#X obj 297 302 -;
#X obj 24 21 inlet~;
#X obj 449 87 table \$0-curve 512;
#X msg 152 9 512;
#N canvas 0 22 450 300 countup 0;
#X obj 129 36 inlet;
#X obj 128 98 \$1;
#X obj 204 51 inlet;
#X obj 126 123 until;
#X obj 126 143 0;
#X obj 154 146 + 1;
#X msg 155 99 0;
#X obj 127 211 outlet;
#X obj 136 70 t a a b a;
#X obj 126 168 t f f;
#X obj 204 178 sel 1;
#X obj 241 223 outlet;
#X obj 210 107 route bang;
#X obj 204 147 == \$1;
#X connect 0 0 8 0;
#X connect 1 0 3 0;
#X connect 2 0 1 1;
#X connect 3 0 4 0;
#X connect 4 0 5 0;
#X connect 4 0 9 0;
#X connect 5 0 4 1;
#X connect 6 0 4 1;
#X connect 8 0 1 0;
#X connect 8 2 6 0;
#X connect 8 3 12 0;
#X connect 9 0 7 0;
#X connect 9 1 13 0;
#X connect 10 0 11 0;
#X connect 12 1 13 1;
#X connect 13 0 10 0;
#X restore 152 31 pd countup;
#X obj 297 135 spigot;
#X obj 153 146 spigot;
#X obj 316 -44 t a a;
#X obj 317 -64 change;
#X obj 153 56 t a a a;
#X obj 155 368 tabwrite \$0-curve;
#X obj 167 85 / 512;
#X obj 23 67 tabread~ \$0-curve;
#X obj 440 -66 loadbang;
#X msg 440 -44 0;
#X obj 24 92 outlet~;
#X obj 23 47 *~ 512;
#X connect 0 0 29 0;
#X connect 1 0 2 0;
#X connect 1 1 6 0;
#X connect 2 0 3 0;
#X connect 3 0 4 0;
#X connect 4 0 27 1;
#X connect 4 1 5 0;
#X connect 5 0 26 1;
#X connect 6 0 14 0;
#X connect 7 0 8 0;
#X connect 8 0 9 0;
#X connect 9 0 10 0;
#X connect 10 0 11 0;
#X connect 11 0 19 1;
#X connect 11 1 18 1;
#X connect 12 0 18 0;
#X connect 13 0 17 0;
#X connect 14 0 13 1;
#X connect 14 1 7 0;
#X connect 17 0 12 0;
#X connect 18 0 19 0;
#X connect 19 0 20 0;
#X connect 20 0 21 0;
#X connect 21 0 31 0;
#X connect 22 0 37 0;
#X connect 24 0 25 0;
#X connect 25 0 30 0;
#X connect 26 0 13 0;
#X connect 27 0 31 0;
#X connect 28 0 24 0;
#X connect 28 1 1 0;
#X connect 29 0 28 0;
#X connect 30 0 32 0;
#X connect 30 2 31 1;
#X connect 32 0 26 0;
#X connect 32 0 27 0;
#X connect 33 0 36 0;
#X connect 34 0 35 0;
#X connect 35 0 28 0;
#X connect 37 0 33 0;
#X restore 105 350 pd curve;
#X obj 110 23 route gate attack sustain amp release curve;
#X connect 0 0 15 0;
#X connect 2 0 14 0;
#X connect 3 0 13 0;
#X connect 3 1 13 1;
#X connect 4 0 13 0;
#X connect 4 1 13 2;
#X connect 5 0 2 0;
#X connect 6 0 13 0;
#X connect 6 1 13 3;
#X connect 7 0 9 0;
#X connect 8 0 5 0;
#X connect 9 0 5 0;
#X connect 10 0 3 0;
#X connect 11 0 6 0;
#X connect 12 0 13 0;
#X connect 13 0 7 0;
#X connect 14 0 1 0;
#X connect 15 0 8 0;
#X connect 15 1 12 0;
#X connect 15 2 10 0;
#X connect 15 3 4 0;
#X connect 15 4 11 0;
#X connect 15 5 14 1;
#X restore 386 198 pd ahsr;
#X obj 180 164 osc~ 440;
#X obj 181 266 outlet~;
#N canvas 137 114 719 605 pitchenv 0;
#X obj 111 -2 inlet;
#X obj 104 343 outlet~;
#X obj 106 311 vline~;
#X obj 204 93 t b a;
#X obj 246 92 t b a;
#X msg 108 285 518.019 \, 523.251 1000 \, 523.251 200 0;
#X obj 298 91 t b a;
#N canvas 605 124 465 535 calcSus 0;
#X obj 61 44 inlet;
#X obj 58 399 outlet;
#X obj 60 76 t a a a;
#X obj 152 179 *;
#X obj 113 180 *;
#X obj 99 143 t a a a;
#X text 217 143 Multiply dtime/atime w/ sustain;
#X obj 113 205 t f f;
#X obj 96 277 -;
#X obj 94 302 max 0;
#X obj 53 116 unpack 0 0 0 0 0 0;
#X obj 56 366 pack 0 0 0 0 0 0;
#X obj 63 264 * 440;
#X obj 50 237 * 440;
#X connect 0 0 2 0;
#X connect 2 0 10 0;
#X connect 3 0 11 4;
#X connect 4 0 7 0;
#X connect 5 0 8 0;
#X connect 5 1 4 0;
#X connect 5 2 3 0;
#X connect 7 0 8 1;
#X connect 7 1 11 3;
#X connect 8 0 9 0;
#X connect 9 0 11 2;
#X connect 10 0 13 0;
#X connect 10 1 12 0;
#X connect 10 2 5 0;
#X connect 10 3 4 1;
#X connect 10 4 3 1;
#X connect 10 5 12 1;
#X connect 10 5 13 1;
#X connect 10 5 11 5;
#X connect 11 0 1 0;
#X connect 12 0 11 1;
#X connect 13 0 11 0;
#X restore 175 192 pd calcSus;
#X obj 108 107 gate2trig;
#X obj 348 91 t b a;
#X obj 244 57 * 1000;
#X obj 110 23 route gate pattack pdecay psustain patime pdtime freq
;
#X obj 175 161 pack 1 1 1000 0.1 0.1 440;
#X obj 390 88 t b a;
#X msg 175 220 set \$1 \, addcomma \, add2 \$6 \, add2 \$4 \, addcomma
\, add2 \$2 \, add2 \$5 \, add2 \$3;
#X connect 0 0 11 0;
#X connect 2 0 1 0;
#X connect 3 0 12 0;
#X connect 3 1 12 1;
#X connect 4 0 12 0;
#X connect 4 1 12 2;
#X connect 5 0 2 0;
#X connect 6 0 12 0;
#X connect 6 1 12 3;
#X connect 7 0 14 0;
#X connect 8 0 5 0;
#X connect 9 0 12 0;
#X connect 9 1 12 4;
#X connect 10 0 4 0;
#X connect 11 0 8 0;
#X connect 11 1 12 0;
#X connect 11 2 3 0;
#X connect 11 3 10 0;
#X connect 11 4 6 0;
#X connect 11 5 9 0;
#X connect 11 6 13 0;
#X connect 12 0 7 0;
#X connect 13 0 12 0;
#X connect 13 1 12 5;
#X connect 14 0 5 0;
#X restore 181 137 pd pitchenv;
#N canvas 547 313 450 300 pink-iem 0;
#X text 27 150 signal-out;
#X obj 29 129 outlet~;
#X obj 29 49 noise~;
#X text 14 7 pink~;
#X text 65 8 pink-noise-generator with -3 dB per oktave;
#X text 13 178 (c) musil@iem.kug.ac.at;
#X text 55 191 IEM KUG;
#X text 30 203 graz \, austria 2001;
#X obj 29 88 biquad~ 1.83221 -0.836851 0.271264 -0.456311 0.18969;
#X obj 29 108 biquad~ 0.273097 0.087865 0.505803 0.171365 -0.03813
;
#X obj 29 68 biquad~ 1.98893 -0.988954 1.00554 -1.9889 0.983444;
#X connect 2 0 10 0;
#X connect 8 0 9 0;
#X connect 9 0 1 0;
#X connect 10 0 8 0;
#X restore 241 163 pd pink-iem;
#X obj 240 188 *~ 0.03;
#X connect 0 0 1 0;
#X connect 1 0 6 0;
#X connect 1 1 3 0;
#X connect 2 0 5 0;
#X connect 3 0 2 1;
#X connect 4 0 2 0;
#X connect 6 0 4 0;
#X connect 7 0 8 0;
#X connect 8 0 2 0;
