#N canvas 538 184 591 475 10;
#X obj 260 42 loadbang;
#X obj 104 -21 r OSC;
#X msg 259 90 parus gate 1;
#X obj 104 172 birds;
#X obj 115 28 route list;
#X obj 103 77 route /pdmsg /pdsched;
#X text 199 -2 Incoming message: instrument param val param val split
up to instrument param val \, instrument param val ...;
#N canvas 592 64 450 300 time 0;
#X obj 74 -30 inlet;
#N canvas 619 99 617 462 timedelay 0;
#X obj 117 -85 inlet;
#X obj 117 -28 unpack f f;
#X obj 119 166 +;
#N canvas 0 22 450 300 once 0;
#X obj 89 162 spigot;
#X obj 34 59 inlet;
#X obj 89 111 t a b;
#X obj 126 140 f 1;
#X obj 89 194 t a b;
#X obj 119 216 f 0;
#X obj 89 247 outlet;
#X obj 207 56 inlet;
#X obj 207 79 bang;
#X obj 207 102 f 1;
#X text 8 6 once;
#X text 64 7 only the first message passes through;
#X text 29 37 message in;
#X text 29 289 message out (only once);
#X text 203 36 anything to init once;
#X obj 34 80 route bang;
#X obj 34 110 t b b;
#X obj 34 162 spigot;
#X obj 34 194 t b b;
#X text 96 375 IEM KUG;
#X text 80 363 musil;
#X text 110 363 @;
#X text 116 363 iem.at;
#X text 31 352 (c) Thomas Musil 2000 - 2005;
#X text 79 385 Graz \, Austria;
#X text 102 336 @;
#X text 108 336 iem.at;
#X text 30 336 (c) zmoelnig;
#X connect 0 0 4 0;
#X connect 1 0 15 0;
#X connect 2 0 0 0;
#X connect 2 1 3 0;
#X connect 3 0 0 1;
#X connect 3 0 17 1;
#X connect 4 0 6 0;
#X connect 4 1 5 0;
#X connect 5 0 3 1;
#X connect 7 0 8 0;
#X connect 8 0 9 0;
#X connect 9 0 3 1;
#X connect 15 0 16 0;
#X connect 15 1 2 0;
#X connect 16 0 17 0;
#X connect 16 1 3 0;
#X connect 17 0 18 0;
#X connect 18 0 6 0;
#X connect 18 1 5 0;
#X restore 229 44 pd once;
#X obj 182 113 timer;
#X obj 120 30 t a b a;
#X obj 229 65 t b a;
#X obj 124 104 -;
#X obj 124 132 -;
#X obj 121 255 outlet;
#X obj 272 -3 inlet;
#X obj 175 27 * 1000;
#X obj 122 4 * 1000;
#X connect 0 0 1 0;
#X connect 1 0 12 0;
#X connect 1 1 11 0;
#X connect 2 0 9 0;
#X connect 3 0 6 0;
#X connect 4 0 8 1;
#X connect 5 0 7 0;
#X connect 5 1 4 1;
#X connect 5 2 3 0;
#X connect 6 0 4 0;
#X connect 6 1 7 1;
#X connect 7 0 8 0;
#X connect 8 0 2 0;
#X connect 10 0 3 1;
#X connect 11 0 2 1;
#X connect 12 0 5 0;
#X restore 73 93 pd timedelay;
#X obj 75 49 list split 2;
#X obj 72 193 pipelist;
#X msg 202 55 reset;
#X obj 73 123 t b a;
#X obj 72 151 list;
#X obj 77 229 outlet;
#X obj 67 171 list trim;
#X connect 0 0 2 0;
#X connect 1 0 5 0;
#X connect 2 0 1 0;
#X connect 2 1 6 1;
#X connect 3 0 7 0;
#X connect 4 0 1 1;
#X connect 5 0 6 0;
#X connect 5 1 3 1;
#X connect 6 0 8 0;
#X connect 8 0 3 0;
#X restore 164 107 pd time;
#X obj 257 394 qlist;
#X obj 188 173 timer;
#X obj 32 92 r DIRECT;
#X obj 189 135 t b b a;
#X obj 163 178 bng 15 250 50 0 empty empty empty 17 7 0 10 -262144
-1 -1;
#X obj 255 171 yambc 123;
#X obj 229 198 list prepend DIRECT;
#X obj 190 220 list append;
#X obj 192 244 list prepend add;
#X obj 193 266 list trim;
#X obj 94 102 route auto;
#X msg 157 317 rewind;
#X obj 9 234 symbol parus.txt;
#X msg 7 316 clear \, read \$1 \, bang;
#X obj 51 263 symbol cuculus.txt;
#X obj 61 283 symbol sparrow.txt;
#X obj 8 210 route parus cuculus sparrow stop;
#X obj 311 374 b;
#X msg 259 90 parus gate 1;
#X obj 7 148 loadbang;
#X connect 0 0 2 0;
#X connect 1 0 4 0;
#X connect 2 0 3 0;
#X connect 4 0 5 0;
#X connect 5 0 18 0;
#X connect 5 1 7 0;
#X connect 7 0 3 1;
#X connect 7 0 11 0;
#X connect 8 1 25 0;
#X connect 9 0 15 0;
#X connect 10 0 3 1;
#X connect 11 0 12 0;
#X connect 11 0 9 0;
#X connect 11 1 9 1;
#X connect 11 2 14 0;
#X connect 14 0 15 1;
#X connect 15 0 16 0;
#X connect 16 0 17 0;
#X connect 18 0 24 0;
#X connect 18 1 3 0;
#X connect 19 0 8 0;
#X connect 20 0 21 0;
#X connect 21 0 8 0;
#X connect 22 0 21 0;
#X connect 23 0 21 0;
#X connect 24 0 20 0;
#X connect 24 1 22 0;
#X connect 24 2 23 0;
#X connect 24 3 19 0;
#X connect 25 0 8 0;
#X connect 27 0 23 0;
