#N canvas 230 154 521 352 10;
#X obj 181 77 inlet;
#X obj 181 101 t a a a;
#X obj 180 231 *~;
#X obj 181 167 *~ 440;
#N canvas 485 89 450 300 pitchenv 0;
#X obj -183 -2 inlet;
#X obj -66 96 gate2trig;
#X obj -154 67 t b a;
#X obj -188 250 outlet~;
#X obj -115 87 * 1000;
#X obj -193 219 vline~;
#X msg -192 196 \$1 \, 1 \$2;
#X obj -193 175 list 1 1000;
#X obj -171 142 pack 1 1000;
#X obj -170 44 route glide sustain gate;
#X connect 0 0 9 0;
#X connect 1 0 7 0;
#X connect 2 0 8 0;
#X connect 2 1 4 0;
#X connect 4 0 8 1;
#X connect 5 0 3 0;
#X connect 6 0 5 0;
#X connect 7 0 6 0;
#X connect 8 0 7 1;
#X connect 9 0 8 0;
#X connect 9 1 2 0;
#X connect 9 2 1 0;
#X restore 181 135 pd pitchenv;
#N canvas 128 74 594 370 ahsr 0;
#X obj 111 -2 inlet;
#X obj 104 343 outlet~;
#X obj 106 311 vline~;
#X obj 204 93 t b a;
#X obj 246 92 t b a;
#X msg 108 285 0 \, 0.1 1 \, 0 1000 158.962;
#X obj 298 91 t b a;
#N canvas 605 124 450 300 calcSus 0;
#X obj 61 44 inlet;
#X obj 135 258 outlet;
#X obj 56 226 pack 0 0 0 0;
#X obj 60 76 t a a a;
#X obj 53 116 unpack 0 0 0 0;
#X obj 72 159 +;
#X msg 106 92 \$1;
#X text 174 71 Add attack to sustain time;
#X connect 0 0 3 0;
#X connect 2 0 1 0;
#X connect 3 0 4 0;
#X connect 3 1 6 0;
#X connect 4 0 2 0;
#X connect 4 1 5 0;
#X connect 4 2 2 2;
#X connect 4 3 2 3;
#X connect 5 0 2 1;
#X connect 6 0 5 1;
#X restore 175 192 pd calcSus;
#X obj 108 107 gate2trig;
#X msg 175 220 set 0 \, addcomma \, add2 \$3 \, add2 \$1 \, addcomma
\, add2 0 \, add2 \$4 \, add2 \$2;
#X obj 207 59 * 1000;
#X obj 300 63 * 1000;
#X obj 159 67 * 1000;
#X obj 175 161 pack 1 1000 1 1;
#X obj 110 23 route gate attack sustain amp release;
#X connect 0 0 14 0;
#X connect 2 0 1 0;
#X connect 3 0 13 0;
#X connect 3 1 13 1;
#X connect 4 0 13 0;
#X connect 4 1 13 2;
#X connect 5 0 2 0;
#X connect 6 0 13 0;
#X connect 6 1 13 3;
#X connect 7 0 9 0;
#X connect 8 0 5 0;
#X connect 9 0 5 0;
#X connect 10 0 3 0;
#X connect 11 0 6 0;
#X connect 12 0 13 0;
#X connect 13 0 7 0;
#X connect 14 0 8 0;
#X connect 14 1 12 0;
#X connect 14 2 10 0;
#X connect 14 3 4 0;
#X connect 14 4 11 0;
#X restore 233 198 pd ahsr;
#X obj 180 193 osc~ 440;
#X obj 181 266 outlet~;
#X obj 255 106 route freq;
#X connect 0 0 1 0;
#X connect 1 0 4 0;
#X connect 1 1 5 0;
#X connect 1 2 8 0;
#X connect 2 0 7 0;
#X connect 3 0 6 0;
#X connect 4 0 3 0;
#X connect 5 0 2 1;
#X connect 6 0 2 0;
#X connect 8 0 3 1;
