#N canvas 356 151 804 440 10;
#X obj 56 118 gate2trig;
#X obj 82 171 + 1;
#X obj 51 172 0;
#X obj 218 200 list trim;
#X obj 82 284 s BIRDS;
#X obj 53 2 inlet;
#X obj 55 32 route \$1;
#X obj 81 208 list prepend \$1;
#X obj 55 95 route gate;
#X msg 83 247 \$1 \$2 gate 1;
#X obj 114 177 % \$2;
#N canvas 0 22 450 300 splitter 0;
#X obj 158 -52 inlet;
#X obj 135 221 outlet;
#X obj 142 102 list split 2;
#X obj 148 36 list;
#X obj 140 180 list trim;
#X obj 280 144 list-splat;
#X connect 0 0 3 0;
#X connect 2 0 4 0;
#X connect 2 1 3 0;
#X connect 3 0 2 0;
#X connect 4 0 1 0;
#X restore 358 182 pd splitter;
#X obj 340 -3 inlet;
#X obj 341 24 route \$1;
#X text 137 44 single messages;
#X text 425 43 long-form scheduled messages (includeing gate);
#X obj 218 178 list prepend \$1 0;
#X obj 358 216 list prepend;
#X obj 358 250 list prepend \$1;
#X obj 259 83 t a b;
#X obj 405 93 + 1;
#X obj 374 94 0;
#X obj 437 99 % \$2;
#X msg 317 115 gate 1;
#X obj 328 50 t b a b;
#X connect 0 0 2 0;
#X connect 1 0 7 0;
#X connect 1 0 10 0;
#X connect 2 0 1 0;
#X connect 3 0 4 0;
#X connect 5 0 6 0;
#X connect 6 0 8 0;
#X connect 7 0 9 0;
#X connect 8 0 0 0;
#X connect 8 1 16 0;
#X connect 9 0 4 0;
#X connect 10 0 2 1;
#X connect 11 0 17 0;
#X connect 12 0 13 0;
#X connect 13 0 24 0;
#X connect 16 0 3 0;
#X connect 17 0 18 0;
#X connect 18 0 3 0;
#X connect 20 0 22 0;
#X connect 20 0 17 1;
#X connect 21 0 20 0;
#X connect 22 0 21 1;
#X connect 23 0 17 0;
#X connect 24 0 23 0;
#X connect 24 1 11 0;
#X connect 24 2 21 0;
